# MagicaVoxel @ ephtracy

# material
mtllib luomu2.mtl
usemtl palette

# normals
vn -1 0 0
vn 1 0 0
vn 0 0 1
vn 0 0 -1
vn 0 -1 0
vn 0 1 0

# texcoords
vt 0.408203 0.5
vt 0.412109 0.5
vt 0.501953 0.5
vt 0.505859 0.5
vt 0.708984 0.5
vt 0.712891 0.5
vt 0.716797 0.5
vt 0.783203 0.5
vt 0.798828 0.5
vt 0.982422 0.5
vt 0.994141 0.5

# verts
v -4.5 3 2
v -4.5 3 -2
v -4.5 4 3
v -4.5 4 2
v -4.5 4 1
v -4.5 4 -0
v -4.5 4 -2
v -4.5 4 -3
v -4.5 5 3
v -4.5 5 1
v -4.5 5 -0
v -4.5 5 -3
v -3.5 2 1
v -3.5 2 -0
v -3.5 2 -1
v -3.5 3 1
v -3.5 3 -0
v -3.5 3 -1
v -3.5 5 3
v -3.5 5 1
v -3.5 5 -0
v -3.5 5 -3
v -3.5 6 3
v -3.5 6 1
v -3.5 6 -0
v -3.5 6 -3
v -2.5 2 2
v -2.5 2 1
v -2.5 3 2
v -2.5 3 1
v -2.5 3 -2
v -2.5 3 -3
v -2.5 4 -2
v -2.5 4 -3
v -2.5 9 1
v -2.5 9 -0
v -2.5 10 1
v -2.5 10 -0
v -1.5 1 1
v -1.5 1 -0
v -1.5 1 -1
v -1.5 2 1
v -1.5 2 -0
v -1.5 2 -1
v -1.5 2 -2
v -1.5 3 -1
v -1.5 3 -2
v -1.5 6 3
v -1.5 6 2
v -1.5 6 1
v -1.5 6 -0
v -1.5 6 -1
v -1.5 6 -3
v -1.5 7 3
v -1.5 7 2
v -1.5 7 -1
v -1.5 7 -3
v -1.5 9 2
v -1.5 9 1
v -1.5 9 -0
v -1.5 9 -1
v -1.5 10 2
v -1.5 10 1
v -1.5 10 -0
v -1.5 10 -1
v -0.5 0 1
v -0.5 0 -0
v -0.5 1 2
v -0.5 1 1
v -0.5 1 -0
v -0.5 1 -1
v -0.5 1 -2
v -0.5 2 2
v -0.5 2 1
v -0.5 2 -1
v -0.5 2 -2
v -0.5 2 -3
v -0.5 3 -2
v -0.5 3 -3
v -0.5 4 3
v -0.5 4 2
v -0.5 5 3
v -0.5 5 2
v -0.5 7 1
v -0.5 7 -0
v -0.5 8 1
v -0.5 8 -0
v -0.5 9 3
v -0.5 9 2
v -0.5 9 1
v -0.5 9 -0
v -0.5 9 -1
v -0.5 9 -2
v -0.5 10 3
v -0.5 10 2
v -0.5 10 -1
v -0.5 10 -2
v 0.5 9 1
v 0.5 9 -0
v 0.5 10 1
v 0.5 10 -0
v 1.5 4 3
v 1.5 4 2
v 1.5 5 3
v 1.5 5 2
v -1.5 4 3
v -1.5 4 2
v -1.5 5 3
v -1.5 5 2
v -0.5 9 1
v -0.5 9 -0
v -0.5 10 1
v -0.5 10 -0
v 0.5 0 1
v 0.5 0 -0
v 0.5 1 2
v 0.5 1 1
v 0.5 1 -0
v 0.5 1 -1
v 0.5 1 -2
v 0.5 2 2
v 0.5 2 1
v 0.5 2 -1
v 0.5 2 -2
v 0.5 2 -3
v 0.5 3 -2
v 0.5 3 -3
v 0.5 4 3
v 0.5 4 2
v 0.5 5 3
v 0.5 5 2
v 0.5 7 1
v 0.5 7 -0
v 0.5 8 1
v 0.5 8 -0
v 0.5 9 3
v 0.5 9 2
v 0.5 9 1
v 0.5 9 -0
v 0.5 9 -1
v 0.5 9 -2
v 0.5 10 3
v 0.5 10 2
v 0.5 10 -1
v 0.5 10 -2
v 1.5 1 1
v 1.5 1 -1
v 1.5 2 1
v 1.5 2 -0
v 1.5 2 -1
v 1.5 2 -2
v 1.5 3 -1
v 1.5 3 -2
v 1.5 6 3
v 1.5 6 2
v 1.5 6 1
v 1.5 6 -0
v 1.5 6 -1
v 1.5 6 -2
v 1.5 6 -3
v 1.5 7 3
v 1.5 7 2
v 1.5 7 1
v 1.5 7 -0
v 1.5 7 -1
v 1.5 7 -3
v 1.5 9 2
v 1.5 9 1
v 1.5 9 -0
v 1.5 9 -1
v 1.5 10 2
v 1.5 10 1
v 1.5 10 -0
v 1.5 10 -1
v 2.5 2 2
v 2.5 2 1
v 2.5 3 2
v 2.5 3 1
v 2.5 3 -2
v 2.5 3 -3
v 2.5 4 -2
v 2.5 4 -3
v 2.5 9 1
v 2.5 9 -0
v 2.5 10 1
v 2.5 10 -0
v 3.5 2 1
v 3.5 2 -0
v 3.5 2 -1
v 3.5 3 1
v 3.5 3 -0
v 3.5 3 -1
v 3.5 5 3
v 3.5 5 2
v 3.5 5 -0
v 3.5 5 -1
v 3.5 5 -2
v 3.5 5 -3
v 3.5 6 3
v 3.5 6 2
v 3.5 6 -1
v 3.5 6 -3
v 4.5 3 2
v 4.5 3 -2
v 4.5 4 3
v 4.5 4 2
v 4.5 4 -0
v 4.5 4 -1
v 4.5 4 -2
v 4.5 4 -3
v 4.5 5 3
v 4.5 5 2
v 4.5 5 -0
v 4.5 5 -1
v 4.5 5 -2
v 4.5 5 -3
v -4.5 4 3
v -4.5 5 3
v -3.5 4 3
v -3.5 5 3
v -3.5 6 3
v -2.5 5 3
v -2.5 6 3
v -1.5 4 3
v -1.5 5 3
v -1.5 6 3
v -1.5 7 3
v -0.5 4 3
v -0.5 5 3
v -0.5 6 3
v -0.5 7 3
v -0.5 9 3
v -0.5 10 3
v 0.5 4 3
v 0.5 5 3
v 0.5 9 3
v 0.5 10 3
v 1.5 4 3
v 1.5 5 3
v 1.5 6 3
v 1.5 7 3
v 2.5 5 3
v 2.5 6 3
v 3.5 5 3
v 3.5 6 3
v 4.5 4 3
v 4.5 5 3
v -4.5 3 2
v -4.5 4 2
v -3.5 3 2
v -3.5 4 2
v -2.5 2 2
v -2.5 3 2
v -2.5 4 2
v -1.5 3 2
v -1.5 4 2
v -1.5 5 2
v -1.5 9 2
v -1.5 10 2
v -0.5 1 2
v -0.5 2 2
v -0.5 3 2
v -0.5 4 2
v -0.5 5 2
v -0.5 9 2
v -0.5 10 2
v 0.5 1 2
v 0.5 2 2
v 0.5 4 2
v 0.5 5 2
v 0.5 9 2
v 0.5 10 2
v 1.5 2 2
v 1.5 3 2
v 1.5 4 2
v 1.5 5 2
v 1.5 9 2
v 1.5 10 2
v 2.5 2 2
v 2.5 3 2
v 2.5 4 2
v 3.5 3 2
v 3.5 4 2
v 4.5 3 2
v 4.5 4 2
v -3.5 2 1
v -3.5 3 1
v -2.5 2 1
v -2.5 3 1
v -2.5 9 1
v -2.5 10 1
v -1.5 1 1
v -1.5 2 1
v -1.5 9 1
v -1.5 10 1
v -0.5 0 1
v -0.5 1 1
v -0.5 2 1
v -0.5 7 1
v -0.5 8 1
v -0.5 9 1
v 0.5 0 1
v 0.5 1 1
v 0.5 2 1
v 0.5 7 1
v 0.5 8 1
v 0.5 9 1
v 1.5 1 1
v 1.5 2 1
v 1.5 9 1
v 1.5 10 1
v 2.5 2 1
v 2.5 3 1
v 2.5 9 1
v 2.5 10 1
v 3.5 2 1
v 3.5 3 1
v -0.5 9 -0
v -0.5 10 -0
v 0.5 9 -0
v 0.5 10 -0
v -0.5 9 1
v -0.5 10 1
v 0.5 9 1
v 0.5 10 1
v -2.5 9 -0
v -2.5 10 -0
v -1.5 9 -0
v -1.5 10 -0
v -0.5 0 -0
v -0.5 1 -0
v -0.5 7 -0
v -0.5 8 -0
v -0.5 9 -0
v 0.5 0 -0
v 0.5 1 -0
v 0.5 7 -0
v 0.5 8 -0
v 0.5 9 -0
v 1.5 9 -0
v 1.5 10 -0
v 2.5 9 -0
v 2.5 10 -0
v -3.5 2 -1
v -3.5 3 -1
v -1.5 1 -1
v -1.5 2 -1
v -1.5 3 -1
v -1.5 9 -1
v -1.5 10 -1
v -0.5 1 -1
v -0.5 2 -1
v -0.5 9 -1
v -0.5 10 -1
v 0.5 1 -1
v 0.5 2 -1
v 0.5 9 -1
v 0.5 10 -1
v 1.5 1 -1
v 1.5 2 -1
v 1.5 3 -1
v 1.5 9 -1
v 1.5 10 -1
v 3.5 2 -1
v 3.5 3 -1
v -4.5 3 -2
v -4.5 4 -2
v -2.5 3 -2
v -2.5 4 -2
v -1.5 2 -2
v -1.5 3 -2
v -0.5 1 -2
v -0.5 2 -2
v -0.5 3 -2
v -0.5 9 -2
v -0.5 10 -2
v 0.5 1 -2
v 0.5 2 -2
v 0.5 3 -2
v 0.5 9 -2
v 0.5 10 -2
v 1.5 2 -2
v 1.5 3 -2
v 2.5 3 -2
v 2.5 4 -2
v 4.5 3 -2
v 4.5 4 -2
v -4.5 4 -3
v -4.5 5 -3
v -3.5 5 -3
v -3.5 6 -3
v -2.5 3 -3
v -2.5 4 -3
v -2.5 5 -3
v -2.5 6 -3
v -1.5 3 -3
v -1.5 4 -3
v -1.5 6 -3
v -1.5 7 -3
v -0.5 2 -3
v -0.5 3 -3
v 0.5 2 -3
v 0.5 3 -3
v 1.5 3 -3
v 1.5 4 -3
v 1.5 5 -3
v 1.5 6 -3
v 1.5 7 -3
v 2.5 3 -3
v 2.5 4 -3
v 3.5 5 -3
v 3.5 6 -3
v 4.5 4 -3
v 4.5 5 -3
v -0.5 0 1
v 0.5 0 1
v -0.5 0 -0
v 0.5 0 -0
v -0.5 1 2
v 0.5 1 2
v -1.5 1 1
v -0.5 1 1
v 0.5 1 1
v 1.5 1 1
v -1.5 1 -0
v -0.5 1 -0
v 0.5 1 -0
v -1.5 1 -1
v -0.5 1 -1
v 0.5 1 -1
v 1.5 1 -1
v -0.5 1 -2
v 0.5 1 -2
v -2.5 2 2
v -0.5 2 2
v 0.5 2 2
v 1.5 2 2
v 2.5 2 2
v -3.5 2 1
v -2.5 2 1
v -1.5 2 1
v -0.5 2 1
v 0.5 2 1
v 1.5 2 1
v 2.5 2 1
v 3.5 2 1
v -3.5 2 -0
v -2.5 2 -0
v -1.5 2 -0
v 1.5 2 -0
v 3.5 2 -0
v -3.5 2 -1
v -1.5 2 -1
v -0.5 2 -1
v 0.5 2 -1
v 1.5 2 -1
v 3.5 2 -1
v -1.5 2 -2
v -0.5 2 -2
v 0.5 2 -2
v 1.5 2 -2
v -0.5 2 -3
v 0.5 2 -3
v -4.5 3 2
v -3.5 3 2
v -2.5 3 2
v 2.5 3 2
v 3.5 3 2
v 4.5 3 2
v -3.5 3 1
v -2.5 3 1
v 2.5 3 1
v 3.5 3 1
v -3.5 3 -0
v 3.5 3 -0
v -3.5 3 -1
v -1.5 3 -1
v 1.5 3 -1
v 3.5 3 -1
v -4.5 3 -2
v -2.5 3 -2
v -1.5 3 -2
v -0.5 3 -2
v 0.5 3 -2
v 1.5 3 -2
v 2.5 3 -2
v 4.5 3 -2
v -2.5 3 -3
v -1.5 3 -3
v -0.5 3 -3
v 0.5 3 -3
v 1.5 3 -3
v 2.5 3 -3
v -4.5 4 3
v -3.5 4 3
v -1.5 4 3
v -0.5 4 3
v 0.5 4 3
v 1.5 4 3
v 4.5 4 3
v -4.5 4 2
v -3.5 4 2
v -2.5 4 2
v -1.5 4 2
v -0.5 4 2
v 0.5 4 2
v 1.5 4 2
v 2.5 4 2
v 3.5 4 2
v 4.5 4 2
v -4.5 4 -2
v -2.5 4 -2
v 2.5 4 -2
v 4.5 4 -2
v -4.5 4 -3
v -2.5 4 -3
v 2.5 4 -3
v 4.5 4 -3
v -1.5 5 3
v -0.5 5 3
v 0.5 5 3
v 1.5 5 3
v -1.5 5 2
v -0.5 5 2
v 0.5 5 2
v 1.5 5 2
v -0.5 9 3
v 0.5 9 3
v -1.5 9 2
v -0.5 9 2
v 0.5 9 2
v 1.5 9 2
v -2.5 9 1
v -1.5 9 1
v -0.5 9 1
v 0.5 9 1
v 1.5 9 1
v 2.5 9 1
v -2.5 9 -0
v -1.5 9 -0
v -0.5 9 -0
v 0.5 9 -0
v 1.5 9 -0
v 2.5 9 -0
v -1.5 9 -1
v -0.5 9 -1
v 0.5 9 -1
v 1.5 9 -1
v -0.5 9 -2
v 0.5 9 -2
v -4.5 5 3
v -3.5 5 3
v 3.5 5 3
v 4.5 5 3
v 3.5 5 2
v 4.5 5 2
v -4.5 5 1
v -3.5 5 1
v -4.5 5 -0
v -3.5 5 -0
v 3.5 5 -0
v 4.5 5 -0
v 3.5 5 -1
v 4.5 5 -1
v 3.5 5 -2
v 4.5 5 -2
v -4.5 5 -3
v -3.5 5 -3
v 3.5 5 -3
v 4.5 5 -3
v -3.5 6 3
v -2.5 6 3
v -1.5 6 3
v 1.5 6 3
v 2.5 6 3
v 3.5 6 3
v -2.5 6 2
v -1.5 6 2
v 1.5 6 2
v 2.5 6 2
v 3.5 6 2
v -3.5 6 1
v -1.5 6 1
v 1.5 6 1
v -3.5 6 -0
v -1.5 6 -0
v 1.5 6 -0
v -2.5 6 -1
v -1.5 6 -1
v 1.5 6 -1
v 2.5 6 -1
v 3.5 6 -1
v 1.5 6 -2
v 2.5 6 -2
v -3.5 6 -3
v -2.5 6 -3
v -1.5 6 -3
v 1.5 6 -3
v 3.5 6 -3
v -1.5 7 3
v -0.5 7 3
v 1.5 7 3
v -1.5 7 2
v -0.5 7 2
v 1.5 7 2
v -0.5 7 1
v 0.5 7 1
v 1.5 7 1
v -0.5 7 -0
v 0.5 7 -0
v 1.5 7 -0
v -1.5 7 -1
v -0.5 7 -1
v 1.5 7 -1
v -1.5 7 -3
v 1.5 7 -3
v -0.5 9 1
v 0.5 9 1
v -0.5 9 -0
v 0.5 9 -0
v -0.5 10 3
v 0.5 10 3
v -1.5 10 2
v -0.5 10 2
v 0.5 10 2
v 1.5 10 2
v -2.5 10 1
v -1.5 10 1
v -0.5 10 1
v 0.5 10 1
v 1.5 10 1
v 2.5 10 1
v -2.5 10 -0
v -1.5 10 -0
v -0.5 10 -0
v 0.5 10 -0
v 1.5 10 -0
v 2.5 10 -0
v -1.5 10 -1
v -0.5 10 -1
v 0.5 10 -1
v 1.5 10 -1
v -0.5 10 -2
v 0.5 10 -2

# faces
f 4/3/1 2/3/1 1/3/1
f 5/3/1 2/3/1 4/3/1
f 6/3/1 2/3/1 5/3/1
f 7/3/1 2/3/1 6/3/1
f 9/2/1 4/2/1 3/2/1
f 9/2/1 5/2/1 4/2/1
f 10/8/1 6/8/1 5/8/1
f 10/2/1 5/2/1 9/2/1
f 11/1/1 8/1/1 7/1/1
f 11/8/1 6/8/1 10/8/1
f 11/1/1 7/1/1 6/1/1
f 12/1/1 8/1/1 11/1/1
f 16/4/1 14/4/1 13/4/1
f 17/3/1 15/3/1 14/3/1
f 17/4/1 14/4/1 16/4/1
f 18/3/1 15/3/1 17/3/1
f 23/2/1 20/2/1 19/2/1
f 24/1/1 21/1/1 20/1/1
f 24/2/1 20/2/1 23/2/1
f 25/8/1 22/8/1 21/8/1
f 25/1/1 21/1/1 24/1/1
f 26/8/1 22/8/1 25/8/1
f 29/4/1 28/4/1 27/4/1
f 30/4/1 28/4/1 29/4/1
f 33/3/1 32/3/1 31/3/1
f 34/3/1 32/3/1 33/3/1
f 37/7/1 36/7/1 35/7/1
f 38/7/1 36/7/1 37/7/1
f 42/4/1 40/4/1 39/4/1
f 43/9/1 41/9/1 40/9/1
f 43/4/1 40/4/1 42/4/1
f 44/9/1 41/9/1 43/9/1
f 46/4/1 45/4/1 44/4/1
f 47/4/1 45/4/1 46/4/1
f 54/2/1 49/2/1 48/2/1
f 55/8/1 52/8/1 51/8/1
f 55/2/1 49/2/1 54/2/1
f 55/8/1 50/8/1 49/8/1
f 55/8/1 51/8/1 50/8/1
f 56/1/1 53/1/1 52/1/1
f 56/8/1 52/8/1 55/8/1
f 57/1/1 53/1/1 56/1/1
f 62/7/1 59/7/1 58/7/1
f 63/7/1 59/7/1 62/7/1
f 64/7/1 61/7/1 60/7/1
f 65/7/1 61/7/1 64/7/1
f 69/6/1 67/6/1 66/6/1
f 70/6/1 67/6/1 69/6/1
f 73/3/1 69/3/1 68/3/1
f 74/3/1 69/3/1 73/3/1
f 75/8/1 72/8/1 71/8/1
f 76/8/1 72/8/1 75/8/1
f 78/3/1 77/3/1 76/3/1
f 79/3/1 77/3/1 78/3/1
f 82/11/1 81/11/1 80/11/1
f 83/11/1 81/11/1 82/11/1
f 86/10/1 85/10/1 84/10/1
f 87/10/1 85/10/1 86/10/1
f 90/6/1 87/6/1 86/6/1
f 91/6/1 87/6/1 90/6/1
f 94/7/1 89/7/1 88/7/1
f 95/7/1 89/7/1 94/7/1
f 96/7/1 93/7/1 92/7/1
f 97/7/1 93/7/1 96/7/1
f 100/7/1 99/7/1 98/7/1
f 101/7/1 99/7/1 100/7/1
f 104/1/1 103/1/1 102/1/1
f 105/1/1 103/1/1 104/1/1
f 106/1/2 107/1/2 108/1/2
f 108/1/2 107/1/2 109/1/2
f 110/7/2 111/7/2 112/7/2
f 112/7/2 111/7/2 113/7/2
f 114/6/2 115/6/2 117/6/2
f 117/6/2 115/6/2 118/6/2
f 116/3/2 117/3/2 121/3/2
f 121/3/2 117/3/2 122/3/2
f 119/8/2 120/8/2 123/8/2
f 123/8/2 120/8/2 124/8/2
f 124/3/2 125/3/2 126/3/2
f 126/3/2 125/3/2 127/3/2
f 128/11/2 129/11/2 130/11/2
f 130/11/2 129/11/2 131/11/2
f 132/10/2 133/10/2 134/10/2
f 134/10/2 133/10/2 135/10/2
f 134/6/2 135/6/2 138/6/2
f 138/6/2 135/6/2 139/6/2
f 136/7/2 137/7/2 142/7/2
f 142/7/2 137/7/2 143/7/2
f 140/7/2 141/7/2 144/7/2
f 144/7/2 141/7/2 145/7/2
f 146/9/2 147/9/2 148/9/2
f 148/9/2 147/9/2 149/9/2
f 149/9/2 147/9/2 150/9/2
f 150/4/2 151/4/2 152/4/2
f 152/4/2 151/4/2 153/4/2
f 154/1/2 155/1/2 161/1/2
f 155/9/2 156/9/2 162/9/2
f 161/1/2 155/1/2 162/1/2
f 156/8/2 157/8/2 163/8/2
f 162/9/2 156/9/2 163/9/2
f 157/9/2 158/9/2 164/9/2
f 163/8/2 157/8/2 164/8/2
f 158/1/2 159/1/2 165/1/2
f 164/9/2 158/9/2 165/9/2
f 159/1/2 160/1/2 165/1/2
f 165/1/2 160/1/2 166/1/2
f 167/7/2 168/7/2 171/7/2
f 171/7/2 168/7/2 172/7/2
f 169/7/2 170/7/2 173/7/2
f 173/7/2 170/7/2 174/7/2
f 175/4/2 176/4/2 177/4/2
f 177/4/2 176/4/2 178/4/2
f 179/3/2 180/3/2 181/3/2
f 181/3/2 180/3/2 182/3/2
f 183/7/2 184/7/2 185/7/2
f 185/7/2 184/7/2 186/7/2
f 187/3/2 188/3/2 190/3/2
f 188/4/2 189/4/2 191/4/2
f 190/3/2 188/3/2 191/3/2
f 191/4/2 189/4/2 192/4/2
f 193/2/2 194/2/2 199/2/2
f 195/1/2 196/1/2 200/1/2
f 199/2/2 194/2/2 200/2/2
f 194/1/2 195/1/2 200/1/2
f 197/8/2 198/8/2 201/8/2
f 200/1/2 196/1/2 201/1/2
f 196/8/2 197/8/2 201/8/2
f 201/8/2 198/8/2 202/8/2
f 203/3/2 204/3/2 206/3/2
f 206/3/2 204/3/2 207/3/2
f 207/3/2 204/3/2 208/3/2
f 208/3/2 204/3/2 209/3/2
f 205/1/2 206/1/2 211/1/2
f 206/2/2 207/2/2 212/2/2
f 211/1/2 206/1/2 212/1/2
f 207/1/2 208/1/2 213/1/2
f 212/2/2 207/2/2 213/2/2
f 208/8/2 209/8/2 214/8/2
f 213/1/2 208/1/2 214/1/2
f 209/1/2 210/1/2 215/1/2
f 214/8/2 209/8/2 215/8/2
f 215/1/2 210/1/2 216/1/2
f 219/2/3 218/2/3 217/2/3
f 220/2/3 218/2/3 219/2/3
f 222/1/3 220/1/3 219/1/3
f 222/2/3 221/2/3 220/2/3
f 223/2/3 221/2/3 222/2/3
f 224/1/3 222/1/3 219/1/3
f 224/1/3 223/1/3 222/1/3
f 225/1/3 223/1/3 224/1/3
f 226/1/3 223/1/3 225/1/3
f 229/1/3 226/1/3 225/1/3
f 230/2/3 227/2/3 226/2/3
f 230/1/3 226/1/3 229/1/3
f 231/2/3 227/2/3 230/2/3
f 234/11/3 229/11/3 228/11/3
f 235/1/3 230/1/3 229/1/3
f 235/11/3 229/11/3 234/11/3
f 235/1/3 231/1/3 230/1/3
f 236/7/3 233/7/3 232/7/3
f 237/7/3 233/7/3 236/7/3
f 239/1/3 231/1/3 235/1/3
f 240/1/3 231/1/3 239/1/3
f 241/1/3 231/1/3 240/1/3
f 242/1/3 239/1/3 238/1/3
f 242/1/3 240/1/3 239/1/3
f 243/1/3 240/1/3 242/1/3
f 244/1/3 242/1/3 238/1/3
f 244/2/3 243/2/3 242/2/3
f 245/2/3 243/2/3 244/2/3
f 246/1/3 244/1/3 238/1/3
f 247/1/3 244/1/3 246/1/3
f 250/3/3 249/3/3 248/3/3
f 251/3/3 249/3/3 250/3/3
f 253/4/3 251/4/3 250/4/3
f 254/4/3 251/4/3 253/4/3
f 255/4/3 253/4/3 252/4/3
f 255/3/3 254/3/3 253/3/3
f 256/3/3 254/3/3 255/3/3
f 261/4/3 255/4/3 252/4/3
f 262/8/3 256/8/3 255/8/3
f 262/8/3 257/8/3 256/8/3
f 262/4/3 255/4/3 261/4/3
f 263/8/3 257/8/3 262/8/3
f 264/8/3 257/8/3 263/8/3
f 265/7/3 259/7/3 258/7/3
f 266/7/3 259/7/3 265/7/3
f 267/3/3 261/3/3 260/3/3
f 267/3/3 262/3/3 261/3/3
f 268/3/3 262/3/3 267/3/3
f 269/8/3 263/8/3 262/8/3
f 273/3/3 262/3/3 268/3/3
f 274/8/3 270/8/3 269/8/3
f 274/3/3 262/3/3 273/3/3
f 274/8/3 269/8/3 262/8/3
f 275/8/3 270/8/3 274/8/3
f 276/8/3 270/8/3 275/8/3
f 277/7/3 272/7/3 271/7/3
f 278/7/3 272/7/3 277/7/3
f 279/4/3 274/4/3 273/4/3
f 280/3/3 275/3/3 274/3/3
f 280/4/3 274/4/3 279/4/3
f 281/3/3 275/3/3 280/3/3
f 282/4/3 281/4/3 280/4/3
f 283/4/3 281/4/3 282/4/3
f 284/3/3 283/3/3 282/3/3
f 285/3/3 283/3/3 284/3/3
f 288/4/3 287/4/3 286/4/3
f 289/4/3 287/4/3 288/4/3
f 294/7/3 291/7/3 290/7/3
f 295/7/3 291/7/3 294/7/3
f 297/4/3 293/4/3 292/4/3
f 298/4/3 293/4/3 297/4/3
f 302/6/3 297/6/3 296/6/3
f 303/6/3 297/6/3 302/6/3
f 305/10/3 300/10/3 299/10/3
f 306/6/3 301/6/3 300/6/3
f 306/10/3 300/10/3 305/10/3
f 307/6/3 301/6/3 306/6/3
f 308/9/3 304/9/3 303/9/3
f 309/9/3 304/9/3 308/9/3
f 314/7/3 311/7/3 310/7/3
f 315/7/3 311/7/3 314/7/3
f 316/3/3 313/3/3 312/3/3
f 317/3/3 313/3/3 316/3/3
f 320/7/3 319/7/3 318/7/3
f 321/7/3 319/7/3 320/7/3
f 322/7/4 323/7/4 324/7/4
f 324/7/4 323/7/4 325/7/4
f 326/7/4 327/7/4 328/7/4
f 328/7/4 327/7/4 329/7/4
f 330/6/4 331/6/4 335/6/4
f 335/6/4 331/6/4 336/6/4
f 332/10/4 333/10/4 337/10/4
f 333/6/4 334/6/4 338/6/4
f 337/10/4 333/10/4 338/10/4
f 338/6/4 334/6/4 339/6/4
f 340/7/4 341/7/4 342/7/4
f 342/7/4 341/7/4 343/7/4
f 344/3/4 345/3/4 347/3/4
f 347/3/4 345/3/4 348/3/4
f 346/9/4 347/9/4 351/9/4
f 351/9/4 347/9/4 352/9/4
f 349/7/4 350/7/4 353/7/4
f 353/7/4 350/7/4 354/7/4
f 355/9/4 356/9/4 359/9/4
f 359/9/4 356/9/4 360/9/4
f 357/7/4 358/7/4 362/7/4
f 362/7/4 358/7/4 363/7/4
f 360/4/4 361/4/4 364/4/4
f 364/4/4 361/4/4 365/4/4
f 366/3/4 367/3/4 368/3/4
f 368/3/4 367/3/4 369/3/4
f 370/4/4 371/4/4 373/4/4
f 373/4/4 371/4/4 374/4/4
f 372/8/4 373/8/4 377/8/4
f 377/8/4 373/8/4 378/8/4
f 375/7/4 376/7/4 380/7/4
f 380/7/4 376/7/4 381/7/4
f 378/4/4 379/4/4 382/4/4
f 382/4/4 379/4/4 383/4/4
f 384/3/4 385/3/4 386/3/4
f 386/3/4 385/3/4 387/3/4
f 388/1/4 389/1/4 390/1/4
f 388/1/4 390/1/4 393/1/4
f 390/8/4 391/8/4 394/8/4
f 393/1/4 390/1/4 394/1/4
f 394/8/4 391/8/4 395/8/4
f 392/3/4 393/3/4 396/3/4
f 393/1/4 394/1/4 397/1/4
f 396/3/4 393/3/4 397/3/4
f 394/1/4 395/1/4 397/1/4
f 397/1/4 395/1/4 398/1/4
f 396/4/4 397/4/4 401/4/4
f 400/3/4 401/3/4 402/3/4
f 401/4/4 397/4/4 403/4/4
f 402/3/4 401/3/4 403/3/4
f 403/4/4 397/4/4 404/4/4
f 397/1/4 398/1/4 405/1/4
f 404/4/4 397/4/4 405/4/4
f 398/1/4 399/1/4 405/1/4
f 405/1/4 399/1/4 406/1/4
f 406/1/4 399/1/4 407/1/4
f 407/1/4 399/1/4 408/1/4
f 404/3/4 405/3/4 409/3/4
f 405/1/4 406/1/4 410/1/4
f 409/3/4 405/3/4 410/3/4
f 406/8/4 407/8/4 411/8/4
f 410/1/4 406/1/4 411/1/4
f 411/8/4 407/8/4 412/8/4
f 410/1/4 411/1/4 413/1/4
f 413/1/4 411/1/4 414/1/4
f 417/6/5 416/6/5 415/6/5
f 418/6/5 416/6/5 417/6/5
f 422/3/5 420/3/5 419/3/5
f 423/3/5 420/3/5 422/3/5
f 425/4/5 422/4/5 421/4/5
f 426/4/5 422/4/5 425/4/5
f 427/9/5 424/9/5 423/9/5
f 428/9/5 426/9/5 425/9/5
f 428/9/5 427/9/5 426/9/5
f 429/9/5 427/9/5 428/9/5
f 430/9/5 424/9/5 427/9/5
f 430/9/5 427/9/5 429/9/5
f 431/9/5 424/9/5 430/9/5
f 432/8/5 430/8/5 429/8/5
f 433/8/5 430/8/5 432/8/5
f 440/4/5 435/4/5 434/4/5
f 441/4/5 435/4/5 440/4/5
f 442/4/5 435/4/5 441/4/5
f 443/3/5 437/3/5 436/3/5
f 444/4/5 438/4/5 437/4/5
f 444/3/5 437/3/5 443/3/5
f 445/4/5 438/4/5 444/4/5
f 447/4/5 440/4/5 439/4/5
f 448/3/5 441/3/5 440/3/5
f 448/4/5 440/4/5 447/4/5
f 449/3/5 441/3/5 448/3/5
f 450/3/5 446/3/5 445/3/5
f 450/3/5 445/3/5 444/3/5
f 451/3/5 446/3/5 450/3/5
f 452/3/5 449/3/5 448/3/5
f 452/3/5 448/3/5 447/3/5
f 453/3/5 449/3/5 452/3/5
f 456/4/5 451/4/5 450/4/5
f 457/4/5 451/4/5 456/4/5
f 458/4/5 454/4/5 453/4/5
f 459/4/5 454/4/5 458/4/5
f 460/4/5 456/4/5 455/4/5
f 461/4/5 456/4/5 460/4/5
f 462/3/5 460/3/5 459/3/5
f 463/3/5 460/3/5 462/3/5
f 470/3/5 465/3/5 464/3/5
f 470/4/5 466/4/5 465/4/5
f 471/4/5 466/4/5 470/4/5
f 472/4/5 468/4/5 467/4/5
f 473/3/5 469/3/5 468/3/5
f 473/4/5 468/4/5 472/4/5
f 474/3/5 470/3/5 464/3/5
f 475/3/5 469/3/5 473/3/5
f 476/3/5 474/3/5 464/3/5
f 479/3/5 469/3/5 475/3/5
f 480/3/5 477/3/5 476/3/5
f 480/3/5 476/3/5 464/3/5
f 481/3/5 477/3/5 480/3/5
f 482/3/5 477/3/5 481/3/5
f 485/3/5 479/3/5 478/3/5
f 486/3/5 479/3/5 485/3/5
f 487/3/5 469/3/5 479/3/5
f 487/3/5 479/3/5 486/3/5
f 488/3/5 482/3/5 481/3/5
f 489/4/5 483/4/5 482/4/5
f 489/3/5 482/3/5 488/3/5
f 490/4/5 483/4/5 489/4/5
f 491/4/5 485/4/5 484/4/5
f 492/3/5 486/3/5 485/3/5
f 492/4/5 485/4/5 491/4/5
f 493/3/5 486/3/5 492/3/5
f 501/2/5 495/2/5 494/2/5
f 502/1/5 496/1/5 495/1/5
f 502/2/5 495/2/5 501/2/5
f 503/1/5 496/1/5 502/1/5
f 504/1/5 496/1/5 503/1/5
f 505/11/5 498/11/5 497/11/5
f 506/11/5 498/11/5 505/11/5
f 507/1/5 500/1/5 499/1/5
f 508/1/5 500/1/5 507/1/5
f 509/1/5 500/1/5 508/1/5
f 510/1/5 500/1/5 509/1/5
f 515/1/5 512/1/5 511/1/5
f 516/1/5 512/1/5 515/1/5
f 517/1/5 514/1/5 513/1/5
f 518/1/5 514/1/5 517/1/5
f 523/1/5 520/1/5 519/1/5
f 524/1/5 520/1/5 523/1/5
f 525/1/5 522/1/5 521/1/5
f 526/1/5 522/1/5 525/1/5
f 530/7/5 528/7/5 527/7/5
f 531/7/5 528/7/5 530/7/5
f 534/7/5 530/7/5 529/7/5
f 534/7/5 532/7/5 531/7/5
f 534/7/5 531/7/5 530/7/5
f 535/7/5 532/7/5 534/7/5
f 536/7/5 532/7/5 535/7/5
f 537/7/5 532/7/5 536/7/5
f 539/7/5 534/7/5 533/7/5
f 539/7/5 535/7/5 534/7/5
f 540/7/5 535/7/5 539/7/5
f 541/7/5 535/7/5 540/7/5
f 542/7/5 538/7/5 537/7/5
f 542/7/5 537/7/5 536/7/5
f 543/7/5 538/7/5 542/7/5
f 544/7/5 538/7/5 543/7/5
f 545/7/5 541/7/5 540/7/5
f 545/7/5 543/7/5 542/7/5
f 545/7/5 542/7/5 541/7/5
f 546/7/5 543/7/5 545/7/5
f 547/7/5 543/7/5 546/7/5
f 548/7/5 543/7/5 547/7/5
f 549/7/5 547/7/5 546/7/5
f 550/7/5 547/7/5 549/7/5
f 553/1/6 554/1/6 555/1/6
f 555/1/6 554/1/6 556/1/6
f 551/2/6 552/2/6 557/2/6
f 557/2/6 552/2/6 558/2/6
f 557/8/6 558/8/6 559/8/6
f 559/8/6 558/8/6 560/8/6
f 555/2/6 556/2/6 561/2/6
f 561/2/6 556/2/6 562/2/6
f 561/1/6 562/1/6 563/1/6
f 563/1/6 562/1/6 564/1/6
f 563/8/6 564/8/6 565/8/6
f 565/8/6 564/8/6 566/8/6
f 559/1/6 560/1/6 567/1/6
f 567/1/6 560/1/6 568/1/6
f 565/1/6 566/1/6 569/1/6
f 569/1/6 566/1/6 570/1/6
f 571/2/6 572/2/6 577/2/6
f 572/1/6 573/1/6 577/1/6
f 577/1/6 573/1/6 578/1/6
f 574/1/6 575/1/6 579/1/6
f 575/2/6 576/2/6 580/2/6
f 579/1/6 575/1/6 580/1/6
f 580/2/6 576/2/6 581/2/6
f 577/2/6 578/2/6 582/2/6
f 571/2/6 577/2/6 582/2/6
f 582/2/6 578/2/6 583/2/6
f 580/1/6 581/1/6 584/1/6
f 579/1/6 580/1/6 584/1/6
f 582/1/6 583/1/6 585/1/6
f 585/1/6 583/1/6 586/1/6
f 584/1/6 581/1/6 587/1/6
f 585/8/6 586/8/6 588/8/6
f 588/8/6 586/8/6 589/8/6
f 587/1/6 581/1/6 590/1/6
f 590/1/6 581/1/6 591/1/6
f 591/1/6 581/1/6 592/1/6
f 590/1/6 591/1/6 593/1/6
f 591/8/6 592/8/6 594/8/6
f 593/1/6 591/1/6 594/1/6
f 585/8/6 588/8/6 595/8/6
f 588/1/6 589/1/6 596/1/6
f 595/8/6 588/8/6 596/8/6
f 596/1/6 589/1/6 597/1/6
f 593/8/6 594/8/6 598/8/6
f 594/8/6 592/8/6 599/8/6
f 598/8/6 594/8/6 599/8/6
f 600/2/6 601/2/6 603/2/6
f 601/1/6 602/1/6 604/1/6
f 603/2/6 601/2/6 604/2/6
f 604/1/6 602/1/6 605/1/6
f 603/8/6 604/8/6 606/8/6
f 604/9/6 605/9/6 606/9/6
f 606/9/6 605/9/6 607/9/6
f 607/9/6 605/9/6 608/9/6
f 603/8/6 606/8/6 609/8/6
f 607/8/6 608/8/6 610/8/6
f 610/8/6 608/8/6 611/8/6
f 603/8/6 609/8/6 612/8/6
f 609/9/6 610/9/6 613/9/6
f 612/8/6 609/8/6 613/8/6
f 610/9/6 611/9/6 613/9/6
f 613/9/6 611/9/6 614/9/6
f 612/1/6 613/1/6 615/1/6
f 613/1/6 614/1/6 615/1/6
f 615/1/6 614/1/6 616/1/6
f 617/6/6 618/6/6 619/6/6
f 619/6/6 618/6/6 620/6/6
f 621/7/6 622/7/6 624/7/6
f 624/7/6 622/7/6 625/7/6
f 623/7/6 624/7/6 628/7/6
f 625/7/6 626/7/6 628/7/6
f 624/7/6 625/7/6 628/7/6
f 628/7/6 626/7/6 629/7/6
f 629/7/6 626/7/6 630/7/6
f 630/7/6 626/7/6 631/7/6
f 627/7/6 628/7/6 633/7/6
f 628/7/6 629/7/6 633/7/6
f 633/7/6 629/7/6 634/7/6
f 634/7/6 629/7/6 635/7/6
f 631/7/6 632/7/6 636/7/6
f 630/7/6 631/7/6 636/7/6
f 636/7/6 632/7/6 637/7/6
f 637/7/6 632/7/6 638/7/6
f 634/7/6 635/7/6 639/7/6
f 636/7/6 637/7/6 639/7/6
f 635/7/6 636/7/6 639/7/6
f 639/7/6 637/7/6 640/7/6
f 640/7/6 637/7/6 641/7/6
f 641/7/6 637/7/6 642/7/6
f 640/7/6 641/7/6 643/7/6
f 643/7/6 641/7/6 644/7/6
